<svg xmlns="http://www.w3.org/2000/svg" xmlns:xlink="http://www.w3.org/1999/xlink" width="500" zoomAndPan="magnify" viewBox="0 0 375 299.999988" height="400" preserveAspectRatio="xMidYMid meet" version="1.0"><defs><filter x="0%" y="0%" width="100%" height="100%" id="id1"><feColorMatrix values="0 0 0 0 1 0 0 0 0 1 0 0 0 0 1 0 0 0 1 0" color-interpolation-filters="sRGB"/></filter><clipPath id="id2"><path d="M 94 161.144531 L 150 161.144531 L 150 231 L 94 231 Z M 94 161.144531 " clip-rule="nonzero"/></clipPath><clipPath id="id3"><path d="M 156 161.144531 L 211 161.144531 L 211 233 L 156 233 Z M 156 161.144531 " clip-rule="nonzero"/></clipPath><clipPath id="id4"><path d="M 218 161.144531 L 274 161.144531 L 274 231 L 218 231 Z M 218 161.144531 " clip-rule="nonzero"/></clipPath><clipPath id="id5"><path d="M 93.851562 241 L 113 241 L 113 265 L 93.851562 265 Z M 93.851562 241 " clip-rule="nonzero"/></clipPath><clipPath id="id6"><path d="M 116.015625 241.09375 L 138 241.09375 L 138 265.394531 L 116.015625 265.394531 Z M 116.015625 241.09375 " clip-rule="nonzero"/></clipPath><clipPath id="id7"><path d="M 185 241.09375 L 207 241.09375 L 207 265.394531 L 185 265.394531 Z M 185 241.09375 " clip-rule="nonzero"/></clipPath><clipPath id="id8"><path d="M 210.320312 241.792969 L 229.53125 241.792969 L 229.53125 265.394531 L 210.320312 265.394531 Z M 210.320312 241.792969 " clip-rule="nonzero"/></clipPath><clipPath id="id9"><path d="M 99.246094 171.1875 L 139.09375 171.1875 L 139.09375 177.335938 L 99.246094 177.335938 Z M 154.203125 190.601562 L 154.433594 190.601562 L 154.433594 197.078125 L 154.203125 197.078125 Z M 122.261719 221.746094 L 154.433594 221.746094 L 154.433594 226.441406 L 122.261719 226.441406 Z M 122.261719 221.746094 " clip-rule="nonzero"/></clipPath><clipPath id="id10"><path d="M 190 177.335938 L 215.910156 177.335938 L 215.910156 182.835938 L 190 182.835938 Z M 161.421875 190.601562 L 215.910156 190.601562 L 215.910156 197.078125 L 161.421875 197.078125 Z M 161.421875 190.601562 " clip-rule="nonzero"/></clipPath><clipPath id="id11"><path d="M 231.035156 171.1875 L 260.171875 171.1875 L 260.171875 177.335938 L 231.035156 177.335938 Z M 251.191406 197.078125 L 276.683594 197.078125 L 276.683594 200.632812 L 251.191406 200.632812 Z M 224.625 223.609375 L 278.78125 223.609375 L 278.78125 229.269531 L 224.625 229.269531 Z M 224.625 223.609375 " clip-rule="nonzero"/></clipPath><clipPath id="id12"><path d="M 110.441406 247.554688 L 117.410156 247.554688 L 117.410156 251.601562 L 110.441406 251.601562 Z M 110.441406 247.554688 " clip-rule="nonzero"/></clipPath><clipPath id="id13"><path d="M 121 247.554688 L 131.972656 247.554688 L 131.972656 251.601562 L 121 251.601562 Z M 121 247.554688 " clip-rule="nonzero"/></clipPath><clipPath id="id14"><path d="M 147.835938 259.203125 L 162.46875 259.203125 L 162.46875 262.441406 L 147.835938 262.441406 Z M 147.835938 259.203125 " clip-rule="nonzero"/></clipPath><clipPath id="id15"><path d="M 173.644531 259.203125 L 184.578125 259.203125 L 184.578125 262.441406 L 173.644531 262.441406 Z M 173.644531 259.203125 " clip-rule="nonzero"/></clipPath><clipPath id="id16"><path d="M 201.578125 251.601562 L 212 251.601562 L 212 254.996094 L 201.578125 254.996094 Z M 201.578125 251.601562 " clip-rule="nonzero"/></clipPath><clipPath id="id17"><path d="M 215 251.601562 L 234.074219 251.601562 L 234.074219 254.996094 L 215 254.996094 Z M 215 251.601562 " clip-rule="nonzero"/></clipPath><clipPath id="id18"><path d="M 246.414062 263.085938 L 257.476562 263.085938 L 257.476562 265 L 246.414062 265 Z M 246.414062 263.085938 " clip-rule="nonzero"/></clipPath><clipPath id="id19"><path d="M 271.703125 249.820312 L 281.351562 249.820312 L 281.351562 253.386719 L 271.703125 253.386719 Z M 262.015625 263.085938 L 280.40625 263.085938 L 280.40625 265 L 262.015625 265 Z M 262.015625 263.085938 " clip-rule="nonzero"/></clipPath><clipPath id="id20"><path d="M 165 135 L 309 135 L 309 160.785156 L 165 160.785156 Z M 165 135 " clip-rule="nonzero"/></clipPath><mask id="id21"><g filter="url(#id1)"><rect x="-37.5" width="450" fill="#000000" y="-29.999999" height="359.999986" fill-opacity="0.498"/></g></mask><clipPath id="id22"><path d="M 0.601562 1 L 143.878906 1 L 143.878906 25.785156 L 0.601562 25.785156 Z M 0.601562 1 " clip-rule="nonzero"/></clipPath><clipPath id="id23"><rect x="0" width="144" y="0" height="26"/></clipPath><mask id="id24"><g filter="url(#id1)"><rect x="-37.5" width="450" fill="#000000" y="-29.999999" height="359.999986" fill-opacity="0.498"/></g></mask><clipPath id="id25"><path d="M 0.078125 0.160156 L 119.601562 0.160156 L 119.601562 84.878906 L 0.078125 84.878906 Z M 0.078125 0.160156 " clip-rule="nonzero"/></clipPath><clipPath id="id26"><rect x="0" width="120" y="0" height="85"/></clipPath><mask id="id27"><g filter="url(#id1)"><rect x="-37.5" width="450" fill="#000000" y="-29.999999" height="359.999986" fill-opacity="0.498"/></g></mask><clipPath id="id28"><path d="M 0.28125 0.078125 L 119.558594 0.078125 L 119.558594 84.558594 L 0.28125 84.558594 Z M 0.28125 0.078125 " clip-rule="nonzero"/></clipPath><clipPath id="id29"><rect x="0" width="120" y="0" height="85"/></clipPath><clipPath id="id30"><path d="M 53 43.785156 L 198 43.785156 L 198 70 L 53 70 Z M 53 43.785156 " clip-rule="nonzero"/></clipPath><mask id="id31"><g filter="url(#id1)"><rect x="-37.5" width="450" fill="#000000" y="-29.999999" height="359.999986" fill-opacity="0.498"/></g></mask><clipPath id="id32"><rect x="0" width="145" y="0" height="27"/></clipPath><clipPath id="id33"><path d="M 218 35.195312 L 224 35.195312 L 224 40 L 218 40 Z M 218 35.195312 " clip-rule="nonzero"/></clipPath><clipPath id="id34"><path d="M 158.335938 41 L 175 41 L 175 79 L 158.335938 79 Z M 158.335938 41 " clip-rule="nonzero"/></clipPath></defs><g clip-path="url(#id2)"><path fill="#2964e4" d="M 124.941406 230.988281 L 141.28125 230.988281 L 141.28125 226.441406 L 124.90625 226.441406 Z M 141.28125 204.386719 L 141.28125 188.253906 L 126.847656 188.253906 L 125.046875 204.386719 L 111.886719 204.386719 L 124.132812 177.335938 L 107.558594 177.335938 L 94.589844 205.691406 L 94.589844 216.277344 L 124.832031 216.277344 L 124.871094 221.746094 L 141.28125 221.746094 L 141.28125 216.277344 L 149.347656 216.277344 L 149.347656 204.386719 Z M 114.964844 161.144531 L 110.371094 171.183594 L 126.921875 171.183594 L 129.183594 166.183594 L 114.964844 161.144531 " fill-opacity="1" fill-rule="nonzero"/></g><g clip-path="url(#id3)"><path fill="#2964e4" d="M 209.40625 182.832031 L 192.722656 182.832031 C 193.125 184.941406 193.402344 187.53125 193.558594 190.601562 L 210.625 190.601562 C 210.386719 187.820312 209.980469 185.230469 209.40625 182.832031 Z M 203.945312 170.621094 C 199.304688 164.511719 192.605469 161.453125 183.835938 161.453125 C 175.058594 161.453125 168.359375 164.511719 163.726562 170.621094 C 159.996094 175.542969 157.765625 182.199219 157.039062 190.601562 L 174.113281 190.601562 C 174.273438 187.511719 174.558594 184.917969 174.972656 182.8125 C 175.640625 179.386719 176.6875 176.9375 178.105469 175.460938 C 179.519531 173.980469 181.425781 173.242188 183.835938 173.242188 C 186.238281 173.242188 188.148438 173.945312 189.566406 175.359375 C 190.089844 175.878906 190.554688 176.539062 190.972656 177.335938 L 207.6875 177.335938 C 206.679688 174.820312 205.429688 172.582031 203.945312 170.621094 Z M 193.703125 197.074219 C 193.703125 203.167969 193.367188 207.9375 192.691406 211.390625 C 192.023438 214.847656 190.976562 217.300781 189.566406 218.742188 C 188.148438 220.191406 186.238281 220.914062 183.835938 220.914062 C 181.425781 220.914062 179.519531 220.171875 178.105469 218.695312 C 176.6875 217.21875 175.640625 214.75 174.972656 211.285156 C 174.296875 207.835938 173.960938 203.097656 173.960938 197.074219 L 156.769531 197.074219 C 156.777344 208.472656 159.09375 217.257812 163.726562 223.429688 C 168.359375 229.609375 175.058594 232.703125 183.835938 232.703125 C 192.605469 232.703125 199.304688 229.609375 203.945312 223.429688 C 208.570312 217.257812 210.886719 208.472656 210.894531 197.074219 L 193.703125 197.074219 " fill-opacity="1" fill-rule="nonzero"/></g><g clip-path="url(#id4)"><path fill="#2964e4" d="M 239.332031 161.144531 L 234.742188 171.183594 L 251.292969 171.183594 L 253.554688 166.183594 Z M 249.296875 229.269531 L 249.308594 230.988281 L 265.648438 230.988281 L 265.648438 229.269531 Z M 265.648438 204.386719 L 265.648438 200.632812 L 249.835938 200.632812 L 249.410156 204.386719 L 236.257812 204.386719 L 248.503906 177.335938 L 231.929688 177.335938 L 218.960938 205.691406 L 218.960938 216.277344 L 249.203125 216.277344 L 249.257812 223.605469 L 265.648438 223.605469 L 265.648438 216.277344 L 273.714844 216.277344 L 273.714844 204.386719 Z M 251.21875 188.253906 L 250.234375 197.074219 L 265.648438 197.074219 L 265.648438 188.253906 L 251.21875 188.253906 " fill-opacity="1" fill-rule="nonzero"/></g><g clip-path="url(#id5)"><path fill="#2964e4" d="M 107.359375 251.601562 C 107.386719 254.152344 107.632812 256.855469 108.125 259.71875 L 100.984375 241.929688 L 93.878906 241.929688 L 93.878906 264.84375 L 98.964844 264.84375 L 98.964844 256.449219 C 98.964844 254.617188 98.902344 253.035156 98.769531 251.703125 C 98.644531 250.367188 98.464844 248.828125 98.230469 247.089844 L 105.195312 264.84375 L 112.472656 264.84375 L 112.472656 251.601562 Z M 107.355469 241.929688 L 107.355469 247.554688 L 112.472656 247.554688 L 112.472656 241.929688 L 107.355469 241.929688 " fill-opacity="1" fill-rule="nonzero"/></g><g clip-path="url(#id6)"><path fill="#2964e4" d="M 135.125 244.507812 C 133.210938 242.414062 130.535156 241.367188 127.097656 241.367188 C 124.847656 241.367188 122.90625 241.847656 121.285156 242.804688 C 119.65625 243.765625 118.410156 245.148438 117.539062 246.953125 C 117.441406 247.152344 117.355469 247.351562 117.273438 247.554688 L 123.242188 247.554688 C 123.296875 247.445312 123.359375 247.335938 123.425781 247.234375 C 124.226562 245.96875 125.449219 245.335938 127.097656 245.335938 C 128.746094 245.335938 129.976562 245.964844 130.789062 247.222656 C 131.601562 248.480469 132.007812 250.527344 132.007812 253.371094 C 132.007812 256.214844 131.609375 258.273438 130.804688 259.539062 C 130.003906 260.808594 128.773438 261.4375 127.097656 261.4375 C 125.472656 261.4375 124.253906 260.800781 123.441406 259.519531 C 122.628906 258.246094 122.226562 256.191406 122.226562 253.371094 C 122.226562 252.746094 122.246094 252.152344 122.289062 251.601562 L 116.316406 251.601562 C 116.261719 252.171875 116.234375 252.757812 116.234375 253.371094 C 116.234375 255.910156 116.671875 258.074219 117.539062 259.871094 C 118.410156 261.667969 119.65625 263.039062 121.285156 263.988281 C 122.90625 264.933594 124.847656 265.410156 127.097656 265.410156 C 129.347656 265.410156 131.292969 264.929688 132.929688 263.96875 C 134.566406 263.011719 135.816406 261.628906 136.691406 259.824219 C 137.558594 258.011719 138 255.859375 138 253.371094 C 138 249.554688 137.035156 246.605469 135.125 244.507812 " fill-opacity="1" fill-rule="nonzero"/></g><path fill="#2964e4" d="M 145.378906 262.4375 L 145.378906 264.84375 L 151.089844 264.84375 L 151.089844 262.4375 Z M 139.144531 241.929688 L 139.144531 246.09375 L 145.378906 246.09375 L 145.378906 259.203125 L 151.089844 259.203125 L 151.089844 246.09375 L 157.042969 246.09375 L 157.601562 241.929688 L 139.144531 241.929688 " fill-opacity="1" fill-rule="nonzero"/><path fill="#2964e4" d="M 168.917969 262.4375 L 168.917969 264.84375 L 174.628906 264.84375 L 174.628906 262.4375 Z M 182.703125 245.800781 L 183.296875 241.929688 L 168.917969 241.929688 L 168.917969 259.203125 L 174.628906 259.203125 L 174.628906 255.753906 L 181.660156 255.753906 L 181.660156 251.886719 L 174.628906 251.886719 L 174.628906 245.800781 L 182.703125 245.800781 " fill-opacity="1" fill-rule="nonzero"/><g clip-path="url(#id7)"><path fill="#2964e4" d="M 200.859375 254.996094 C 200.734375 257.015625 200.355469 258.53125 199.714844 259.539062 C 198.914062 260.808594 197.675781 261.4375 196.003906 261.4375 C 194.382812 261.4375 193.164062 260.800781 192.347656 259.519531 C 191.539062 258.246094 191.128906 256.191406 191.128906 253.371094 C 191.128906 250.550781 191.53125 248.503906 192.335938 247.234375 C 193.136719 245.96875 194.359375 245.335938 196.003906 245.335938 C 197.65625 245.335938 198.886719 245.964844 199.695312 247.222656 C 200.332031 248.203125 200.714844 249.65625 200.851562 251.601562 L 206.828125 251.601562 C 206.574219 248.632812 205.636719 246.269531 204.03125 244.507812 C 202.117188 242.414062 199.441406 241.367188 196.003906 241.367188 C 193.757812 241.367188 191.8125 241.847656 190.191406 242.804688 C 188.566406 243.765625 187.316406 245.148438 186.445312 246.953125 C 185.578125 248.765625 185.140625 250.898438 185.140625 253.371094 C 185.140625 255.910156 185.578125 258.074219 186.445312 259.871094 C 187.316406 261.667969 188.566406 263.039062 190.191406 263.988281 C 191.8125 264.933594 193.757812 265.410156 196.003906 265.410156 C 198.257812 265.410156 200.199219 264.929688 201.835938 263.96875 C 203.472656 263.011719 204.730469 261.628906 205.601562 259.824219 C 206.273438 258.417969 206.6875 256.808594 206.835938 254.996094 L 200.859375 254.996094 " fill-opacity="1" fill-rule="nonzero"/></g><g clip-path="url(#id8)"><path fill="#2964e4" d="M 223.480469 254.996094 L 223.480469 257.007812 C 223.480469 258.488281 223.183594 259.585938 222.589844 260.296875 C 222 261.015625 221.050781 261.375 219.75 261.375 C 218.472656 261.375 217.542969 261.015625 216.949219 260.296875 C 216.355469 259.585938 216.058594 258.488281 216.058594 257.007812 L 216.058594 254.996094 L 210.347656 254.996094 L 210.347656 257.238281 C 210.347656 259.730469 211.152344 261.714844 212.753906 263.191406 C 214.355469 264.667969 216.6875 265.410156 219.75 265.410156 C 221.792969 265.410156 223.523438 265.054688 224.941406 264.351562 C 226.355469 263.648438 227.417969 262.675781 228.128906 261.4375 C 228.832031 260.203125 229.1875 258.808594 229.1875 257.238281 L 229.1875 254.996094 Z M 223.480469 241.929688 L 223.480469 251.601562 L 229.1875 251.601562 L 229.1875 241.929688 Z M 210.347656 241.929688 L 210.347656 251.601562 L 216.058594 251.601562 L 216.058594 241.929688 L 210.347656 241.929688 " fill-opacity="1" fill-rule="nonzero"/></g><path fill="#2964e4" d="M 247.226562 241.929688 L 247.226562 251.1875 C 247.226562 253.855469 247.480469 256.699219 247.988281 259.71875 L 240.851562 241.929688 L 233.75 241.929688 L 233.75 264.84375 L 238.835938 264.84375 L 238.835938 256.449219 C 238.835938 254.617188 238.769531 253.035156 238.640625 251.703125 C 238.515625 250.367188 238.335938 248.828125 238.101562 247.089844 L 244.375 263.085938 L 252.34375 263.085938 L 252.34375 241.929688 L 247.226562 241.929688 " fill-opacity="1" fill-rule="nonzero"/><path fill="#2964e4" d="M 270.554688 253.390625 C 270.542969 256.191406 270.050781 258.140625 269.09375 259.238281 C 268.117188 260.355469 266.691406 260.910156 264.8125 260.910156 L 262.925781 260.910156 L 262.925781 245.867188 L 264.738281 245.867188 C 265.972656 245.867188 267 246.070312 267.835938 246.476562 C 268.671875 246.886719 269.335938 247.628906 269.824219 248.707031 C 269.972656 249.035156 270.101562 249.40625 270.199219 249.816406 L 276.175781 249.816406 C 275.703125 247.324219 274.65625 245.503906 273.042969 244.363281 C 270.753906 242.742188 267.71875 241.929688 263.9375 241.929688 L 257.222656 241.929688 L 257.222656 263.085938 L 271.875 263.085938 C 272.316406 262.835938 272.730469 262.554688 273.128906 262.25 C 275.339844 260.535156 276.457031 257.578125 276.472656 253.390625 L 270.554688 253.390625 " fill-opacity="1" fill-rule="nonzero"/><g clip-path="url(#id9)"><path fill="#2964e4" d="M 146.136719 216.273438 L 146.136719 230.988281 L 129.792969 230.988281 L 129.6875 216.273438 L 99.445312 216.273438 L 99.445312 205.691406 L 119.820312 161.148438 L 134.039062 166.1875 L 116.742188 204.382812 L 129.902344 204.382812 L 131.703125 188.257812 L 146.136719 188.257812 L 146.136719 204.382812 L 154.203125 204.382812 L 154.203125 216.273438 L 146.136719 216.273438 " fill-opacity="1" fill-rule="nonzero"/></g><g clip-path="url(#id10)"><path fill="#2964e4" d="M 182.960938 175.457031 C 181.542969 176.9375 180.5 179.390625 179.828125 182.816406 C 179.15625 186.242188 178.820312 190.980469 178.820312 197.027344 C 178.820312 203.074219 179.15625 207.828125 179.828125 211.285156 C 180.5 214.746094 181.542969 217.214844 182.960938 218.695312 C 184.371094 220.171875 186.28125 220.910156 188.6875 220.910156 C 191.09375 220.910156 193.003906 220.191406 194.421875 218.746094 C 195.832031 217.300781 196.878906 214.847656 197.550781 211.386719 C 198.222656 207.925781 198.558594 203.140625 198.558594 197.027344 C 198.558594 190.910156 198.222656 186.125 197.550781 182.664062 C 196.878906 179.207031 195.832031 176.769531 194.421875 175.359375 C 193.003906 173.945312 191.09375 173.242188 188.6875 173.242188 C 186.28125 173.242188 184.371094 173.980469 182.960938 175.457031 Z M 208.800781 170.621094 C 213.433594 176.734375 215.75 185.535156 215.75 197.027344 C 215.75 208.449219 213.433594 217.25 208.800781 223.429688 C 204.164062 229.613281 197.460938 232.703125 188.6875 232.703125 C 179.917969 232.703125 173.210938 229.613281 168.578125 223.429688 C 163.945312 217.25 161.628906 208.449219 161.628906 197.027344 C 161.628906 185.535156 163.945312 176.734375 168.578125 170.621094 C 173.210938 164.507812 179.917969 161.449219 188.6875 161.449219 C 197.460938 161.449219 204.164062 164.507812 208.800781 170.621094 " fill-opacity="1" fill-rule="nonzero"/></g><g clip-path="url(#id11)"><path fill="#2964e4" d="M 270.507812 216.273438 L 270.507812 230.988281 L 254.164062 230.988281 L 254.058594 216.273438 L 223.8125 216.273438 L 223.8125 205.691406 L 244.191406 161.148438 L 258.410156 166.1875 L 241.113281 204.382812 L 254.269531 204.382812 L 256.074219 188.257812 L 270.507812 188.257812 L 270.507812 204.382812 L 278.570312 204.382812 L 278.570312 216.273438 L 270.507812 216.273438 " fill-opacity="1" fill-rule="nonzero"/></g><g clip-path="url(#id12)"><path fill="#2964e4" d="M 110.050781 264.84375 L 103.089844 247.085938 C 103.320312 248.828125 103.5 250.367188 103.628906 251.703125 C 103.757812 253.035156 103.820312 254.617188 103.820312 256.445312 L 103.820312 264.84375 L 98.738281 264.84375 L 98.738281 241.929688 L 105.839844 241.929688 L 112.976562 259.71875 C 112.464844 256.699219 112.210938 253.855469 112.210938 251.1875 L 112.210938 241.929688 L 117.332031 241.929688 L 117.332031 264.84375 L 110.050781 264.84375 " fill-opacity="1" fill-rule="nonzero"/></g><g clip-path="url(#id13)"><path fill="#2964e4" d="M 128.28125 247.238281 C 127.480469 248.503906 127.082031 250.550781 127.082031 253.371094 C 127.082031 256.191406 127.484375 258.242188 128.296875 259.519531 C 129.109375 260.800781 130.328125 261.441406 131.953125 261.441406 C 133.625 261.441406 134.863281 260.804688 135.664062 259.539062 C 136.464844 258.269531 136.863281 256.214844 136.863281 253.371094 C 136.863281 250.527344 136.457031 248.476562 135.644531 247.21875 C 134.832031 245.964844 133.601562 245.335938 131.953125 245.335938 C 130.304688 245.335938 129.082031 245.96875 128.28125 247.238281 Z M 139.980469 244.507812 C 141.894531 246.605469 142.851562 249.558594 142.851562 253.371094 C 142.851562 255.863281 142.417969 258.011719 141.546875 259.820312 C 140.675781 261.628906 139.421875 263.011719 137.785156 263.96875 C 136.148438 264.929688 134.207031 265.40625 131.953125 265.40625 C 129.703125 265.40625 127.765625 264.933594 126.140625 263.988281 C 124.515625 263.039062 123.265625 261.667969 122.394531 259.871094 C 121.527344 258.070312 121.089844 255.90625 121.089844 253.371094 C 121.089844 250.902344 121.527344 248.765625 122.394531 246.957031 C 123.265625 245.148438 124.515625 243.765625 126.140625 242.804688 C 127.765625 241.847656 129.703125 241.367188 131.953125 241.367188 C 135.390625 241.367188 138.066406 242.414062 139.980469 244.507812 " fill-opacity="1" fill-rule="nonzero"/></g><g clip-path="url(#id14)"><path fill="#2964e4" d="M 155.945312 246.097656 L 155.945312 264.84375 L 150.234375 264.84375 L 150.234375 246.097656 L 144 246.097656 L 144 241.929688 L 162.457031 241.929688 L 161.898438 246.097656 L 155.945312 246.097656 " fill-opacity="1" fill-rule="nonzero"/></g><g clip-path="url(#id15)"><path fill="#2964e4" d="M 179.484375 245.800781 L 179.484375 251.882812 L 186.515625 251.882812 L 186.515625 255.75 L 179.484375 255.75 L 179.484375 264.84375 L 173.773438 264.84375 L 173.773438 241.929688 L 188.152344 241.929688 L 187.5625 245.800781 L 179.484375 245.800781 " fill-opacity="1" fill-rule="nonzero"/></g><g clip-path="url(#id16)"><path fill="#2964e4" d="M 197.1875 247.238281 C 196.386719 248.503906 195.988281 250.550781 195.988281 253.371094 C 195.988281 256.191406 196.390625 258.242188 197.207031 259.519531 C 198.019531 260.800781 199.238281 261.441406 200.863281 261.441406 C 202.53125 261.441406 203.769531 260.804688 204.570312 259.539062 C 205.371094 258.269531 205.773438 256.214844 205.773438 253.371094 C 205.773438 250.527344 205.367188 248.476562 204.550781 247.21875 C 203.742188 245.964844 202.511719 245.335938 200.863281 245.335938 C 199.214844 245.335938 197.988281 245.96875 197.1875 247.238281 Z M 208.886719 244.507812 C 210.804688 246.605469 211.761719 249.558594 211.761719 253.371094 C 211.761719 255.863281 211.324219 258.011719 210.453125 259.820312 C 209.585938 261.628906 208.332031 263.011719 206.691406 263.96875 C 205.058594 264.929688 203.113281 265.40625 200.863281 265.40625 C 198.609375 265.40625 196.671875 264.933594 195.046875 263.988281 C 193.421875 263.039062 192.175781 261.667969 191.304688 259.871094 C 190.433594 258.070312 190 255.90625 190 253.371094 C 190 250.902344 190.433594 248.765625 191.304688 246.957031 C 192.175781 245.148438 193.421875 243.765625 195.046875 242.804688 C 196.671875 241.847656 198.609375 241.367188 200.863281 241.367188 C 204.296875 241.367188 206.972656 242.414062 208.886719 244.507812 " fill-opacity="1" fill-rule="nonzero"/></g><g clip-path="url(#id17)"><path fill="#2964e4" d="M 232.984375 261.441406 C 232.273438 262.675781 231.214844 263.644531 229.796875 264.351562 C 228.378906 265.054688 226.652344 265.40625 224.609375 265.40625 C 221.542969 265.40625 219.210938 264.667969 217.609375 263.191406 C 216.007812 261.714844 215.207031 259.730469 215.207031 257.238281 L 215.207031 241.929688 L 220.917969 241.929688 L 220.917969 257.007812 C 220.917969 258.484375 221.214844 259.582031 221.804688 260.296875 C 222.398438 261.015625 223.332031 261.375 224.609375 261.375 C 225.90625 261.375 226.855469 261.015625 227.445312 260.296875 C 228.039062 259.582031 228.335938 258.484375 228.335938 257.007812 L 228.335938 241.929688 L 234.046875 241.929688 L 234.046875 257.238281 C 234.046875 258.804688 233.691406 260.203125 232.984375 261.441406 " fill-opacity="1" fill-rule="nonzero"/></g><g clip-path="url(#id18)"><path fill="#2964e4" d="M 249.921875 264.84375 L 242.957031 247.085938 C 243.191406 248.828125 243.371094 250.367188 243.496094 251.703125 C 243.625 253.035156 243.6875 254.617188 243.6875 256.445312 L 243.6875 264.84375 L 238.605469 264.84375 L 238.605469 241.929688 L 245.707031 241.929688 L 252.847656 259.71875 C 252.335938 256.699219 252.082031 253.855469 252.082031 251.1875 L 252.082031 241.929688 L 257.199219 241.929688 L 257.199219 264.84375 L 249.921875 264.84375 " fill-opacity="1" fill-rule="nonzero"/></g><g clip-path="url(#id19)"><path fill="#2964e4" d="M 267.785156 260.910156 L 269.664062 260.910156 C 271.542969 260.910156 272.972656 260.351562 273.949219 259.242188 C 274.921875 258.128906 275.410156 256.136719 275.410156 253.273438 C 275.410156 251.308594 275.164062 249.789062 274.679688 248.707031 C 274.191406 247.628906 273.53125 246.882812 272.695312 246.476562 C 271.859375 246.070312 270.824219 245.863281 269.59375 245.863281 L 267.785156 245.863281 Z M 277.898438 244.359375 C 280.183594 245.980469 281.332031 248.949219 281.332031 253.273438 C 281.332031 257.527344 280.214844 260.519531 277.988281 262.25 C 275.757812 263.980469 272.867188 264.84375 269.316406 264.84375 L 262.074219 264.84375 L 262.074219 241.929688 L 268.792969 241.929688 C 272.578125 241.929688 275.613281 242.738281 277.898438 244.359375 " fill-opacity="1" fill-rule="nonzero"/></g><g clip-path="url(#id20)"><g mask="url(#id21)"><g transform="matrix(1, 0, 0, 1, 165, 135)"><g clip-path="url(#id23)"><g clip-path="url(#id22)"><path fill="#359dee" d="M 100.722656 25.777344 C 98.96875 25.777344 97.152344 25.746094 95.304688 25.683594 C 69.269531 24.855469 36.546875 18.304688 3.15625 7.203125 C 1.496094 6.664062 0.574219 4.847656 1.148438 3.195312 C 1.71875 1.542969 3.503906 0.617188 5.160156 1.191406 C 37.980469 12.070312 70.066406 18.527344 95.496094 19.351562 C 118.980469 20.085938 134.625 15.695312 137.332031 7.585938 C 137.875 5.929688 139.691406 5.007812 141.347656 5.582031 C 143.003906 6.121094 143.929688 7.933594 143.355469 9.589844 C 141.347656 15.601562 135.769531 20.019531 126.753906 22.726562 C 119.902344 24.761719 111.140625 25.777344 100.722656 25.777344 Z M 100.722656 25.777344 " fill-opacity="1" fill-rule="nonzero"/></g></g></g></g></g><g mask="url(#id24)"><g transform="matrix(1, 0, 0, 1, 190, 62)"><g clip-path="url(#id26)"><g clip-path="url(#id25)"><path fill="#2554e1" d="M 115.359375 84.75 C 115.039062 84.75 114.691406 84.6875 114.339844 84.59375 C 112.683594 84.050781 111.757812 82.238281 112.332031 80.585938 C 115.039062 72.441406 105.132812 59.59375 85.886719 46.136719 C 65.015625 31.601562 35.445312 17.605469 2.625 6.695312 C 0.96875 6.15625 0.0429688 4.34375 0.617188 2.6875 C 1.160156 1.035156 2.976562 0.113281 4.632812 0.683594 C 38.027344 11.722656 68.167969 26.035156 89.519531 40.921875 C 100.066406 48.269531 107.933594 55.394531 112.9375 62.136719 C 118.546875 69.707031 120.394531 76.578125 118.386719 82.589844 C 117.941406 83.894531 116.699219 84.75 115.359375 84.75 Z M 115.359375 84.75 " fill-opacity="1" fill-rule="nonzero"/></g></g></g></g><g mask="url(#id27)"><g transform="matrix(1, 0, 0, 1, 53, 58)"><g clip-path="url(#id29)"><g clip-path="url(#id28)"><path fill="#3ecaf6" d="M 116.140625 84.394531 C 115.824219 84.394531 115.472656 84.332031 115.121094 84.234375 C 81.730469 73.167969 51.585938 58.851562 30.238281 44 C 19.691406 36.652344 11.820312 29.527344 6.816406 22.785156 C 1.210938 15.214844 -0.605469 8.34375 1.371094 2.332031 C 1.910156 0.675781 3.726562 -0.246094 5.382812 0.328125 C 7.039062 0.867188 7.964844 2.679688 7.390625 4.335938 C 4.683594 12.445312 14.59375 25.328125 33.839844 38.75 C 54.707031 53.285156 84.277344 67.28125 117.097656 78.160156 C 118.753906 78.699219 119.679688 80.511719 119.105469 82.167969 C 118.722656 83.535156 117.480469 84.394531 116.140625 84.394531 Z M 116.140625 84.394531 " fill-opacity="1" fill-rule="nonzero"/></g></g></g></g><g clip-path="url(#id30)"><g mask="url(#id31)"><g transform="matrix(1, 0, 0, 1, 53, 43)"><g clip-path="url(#id32)"><path fill="#2e7fe9" d="M 140.613281 25.855469 C 140.292969 25.855469 139.945312 25.792969 139.59375 25.695312 C 106.773438 14.820312 74.6875 8.363281 49.261719 7.566406 C 25.777344 6.804688 10.132812 11.222656 7.421875 19.335938 C 6.882812 20.988281 5.066406 21.910156 3.410156 21.339844 C 1.71875 20.796875 0.828125 18.984375 1.371094 17.332031 C 3.375 11.320312 8.953125 6.898438 18.003906 4.195312 C 26.03125 1.808594 36.609375 0.792969 49.484375 1.207031 C 75.515625 2.03125 108.238281 8.585938 141.632812 19.652344 C 143.289062 20.195312 144.214844 22.007812 143.640625 23.660156 C 143.195312 24.996094 141.953125 25.855469 140.613281 25.855469 Z M 140.613281 25.855469 " fill-opacity="1" fill-rule="nonzero"/></g></g></g></g><path fill="#0f5784" d="M 242.890625 99.679688 C 242.679688 98.894531 241.984375 98.378906 241.21875 98.351562 C 241.214844 98.351562 241.214844 98.347656 241.210938 98.34375 C 240.980469 97.957031 240.703125 97.59375 240.386719 97.261719 C 240.382812 97.261719 240.382812 97.257812 240.378906 97.257812 C 240.558594 96.503906 240.246094 95.695312 239.546875 95.285156 C 238.84375 94.878906 237.988281 95.007812 237.429688 95.535156 C 237.425781 95.535156 237.421875 95.535156 237.417969 95.535156 C 236.976562 95.421875 236.523438 95.359375 236.074219 95.351562 C 236.070312 95.351562 236.066406 95.351562 236.0625 95.351562 C 235.660156 94.695312 234.871094 94.34375 234.089844 94.554688 C 233.304688 94.761719 232.792969 95.460938 232.769531 96.234375 C 232.765625 96.238281 232.761719 96.238281 232.761719 96.238281 C 232.375 96.472656 232.011719 96.75 231.683594 97.066406 C 231.679688 97.070312 231.679688 97.070312 231.675781 97.074219 C 230.929688 96.894531 230.121094 97.207031 229.714844 97.910156 C 229.308594 98.617188 229.4375 99.476562 229.964844 100.039062 C 229.964844 100.042969 229.964844 100.042969 229.964844 100.046875 C 229.851562 100.492188 229.792969 100.945312 229.78125 101.398438 C 229.78125 101.398438 229.78125 101.402344 229.78125 101.40625 C 229.125 101.8125 228.777344 102.605469 228.984375 103.390625 C 229.191406 104.175781 229.886719 104.691406 230.65625 104.71875 C 230.65625 104.71875 230.660156 104.722656 230.660156 104.726562 C 230.890625 105.113281 231.167969 105.476562 231.488281 105.808594 C 231.488281 105.808594 231.492188 105.8125 231.492188 105.8125 C 231.316406 106.566406 231.628906 107.375 232.328125 107.785156 C 233.027344 108.191406 233.886719 108.0625 234.445312 107.53125 C 234.449219 107.53125 234.453125 107.535156 234.453125 107.535156 C 234.898438 107.648438 235.351562 107.707031 235.800781 107.71875 C 235.804688 107.71875 235.808594 107.71875 235.808594 107.71875 C 236.214844 108.375 237.003906 108.722656 237.785156 108.515625 C 238.566406 108.308594 239.082031 107.609375 239.105469 106.835938 C 239.109375 106.835938 239.113281 106.835938 239.113281 106.832031 C 239.5 106.601562 239.863281 106.320312 240.191406 106.003906 C 240.195312 106 240.195312 105.996094 240.199219 105.996094 C 240.945312 106.175781 241.753906 105.863281 242.160156 105.15625 C 242.566406 104.453125 242.4375 103.59375 241.910156 103.03125 C 241.910156 103.027344 241.910156 103.027344 241.910156 103.023438 C 242.023438 102.578125 242.085938 102.125 242.09375 101.671875 C 242.09375 101.667969 242.09375 101.664062 242.09375 101.664062 C 242.75 101.257812 243.097656 100.460938 242.890625 99.679688 Z M 234.171875 100.507812 C 234.738281 99.53125 235.988281 99.199219 236.960938 99.765625 C 237.933594 100.332031 238.265625 101.582031 237.699219 102.5625 C 237.136719 103.539062 235.886719 103.871094 234.914062 103.304688 C 233.941406 102.738281 233.609375 101.484375 234.171875 100.507812 Z M 234.171875 100.507812 " fill-opacity="1" fill-rule="nonzero"/><path fill="#0f5784" d="M 176.886719 102.144531 C 176.753906 101.636719 176.304688 101.304688 175.804688 101.285156 C 175.804688 101.285156 175.804688 101.28125 175.800781 101.28125 C 175.652344 101.03125 175.472656 100.792969 175.265625 100.578125 C 175.265625 100.578125 175.261719 100.578125 175.261719 100.578125 C 175.378906 100.089844 175.175781 99.5625 174.722656 99.300781 C 174.265625 99.035156 173.710938 99.117188 173.347656 99.460938 C 173.347656 99.460938 173.34375 99.460938 173.34375 99.460938 C 173.054688 99.386719 172.761719 99.347656 172.46875 99.339844 C 172.46875 99.339844 172.464844 99.34375 172.464844 99.339844 C 172.203125 98.914062 171.691406 98.6875 171.183594 98.824219 C 170.675781 98.960938 170.34375 99.414062 170.328125 99.914062 C 170.324219 99.914062 170.324219 99.917969 170.324219 99.917969 C 170.070312 100.066406 169.839844 100.246094 169.625 100.453125 C 169.625 100.457031 169.621094 100.457031 169.621094 100.457031 C 169.136719 100.339844 168.613281 100.542969 168.347656 101 C 168.085938 101.457031 168.167969 102.015625 168.511719 102.378906 C 168.511719 102.382812 168.511719 102.382812 168.507812 102.386719 C 168.4375 102.675781 168.398438 102.96875 168.390625 103.261719 C 168.390625 103.261719 168.394531 103.265625 168.394531 103.265625 C 167.96875 103.527344 167.742188 104.042969 167.875 104.554688 C 168.011719 105.0625 168.460938 105.394531 168.960938 105.414062 C 168.960938 105.414062 168.960938 105.414062 168.960938 105.417969 C 169.113281 105.667969 169.292969 105.90625 169.496094 106.117188 C 169.5 106.121094 169.5 106.121094 169.503906 106.125 C 169.386719 106.609375 169.589844 107.136719 170.042969 107.398438 C 170.496094 107.664062 171.050781 107.582031 171.414062 107.238281 C 171.417969 107.238281 171.417969 107.238281 171.421875 107.238281 C 171.707031 107.3125 172 107.351562 172.292969 107.355469 C 172.296875 107.355469 172.296875 107.355469 172.300781 107.355469 C 172.5625 107.78125 173.074219 108.007812 173.582031 107.875 C 174.085938 107.738281 174.421875 107.285156 174.4375 106.785156 C 174.4375 106.785156 174.441406 106.785156 174.441406 106.785156 C 174.691406 106.632812 174.925781 106.453125 175.140625 106.246094 C 175.140625 106.242188 175.140625 106.242188 175.144531 106.242188 C 175.628906 106.359375 176.152344 106.152344 176.414062 105.699219 C 176.679688 105.242188 176.59375 104.683594 176.253906 104.320312 C 176.253906 104.316406 176.253906 104.316406 176.253906 104.3125 C 176.328125 104.023438 176.367188 103.730469 176.371094 103.4375 C 176.375 103.4375 176.371094 103.433594 176.371094 103.433594 C 176.796875 103.171875 177.023438 102.65625 176.886719 102.144531 Z M 171.238281 102.683594 C 171.605469 102.050781 172.414062 101.835938 173.042969 102.203125 C 173.675781 102.570312 173.890625 103.378906 173.523438 104.015625 C 173.160156 104.648438 172.351562 104.863281 171.71875 104.496094 C 171.089844 104.128906 170.871094 103.316406 171.238281 102.683594 Z M 171.238281 102.683594 " fill-opacity="1" fill-rule="nonzero"/><path fill="#ffffff" d="M 227.957031 45.039062 C 227.617188 45.765625 226.757812 46.082031 226.027344 45.742188 C 225.300781 45.40625 224.984375 44.539062 225.324219 43.804688 C 225.664062 43.078125 226.527344 42.761719 227.253906 43.105469 C 227.976562 43.441406 228.292969 44.308594 227.957031 45.039062 Z M 227.957031 45.039062 " fill-opacity="1" fill-rule="nonzero"/><path fill="#2492dd" d="M 225.789062 46.089844 C 224.902344 45.636719 224.523438 44.546875 224.949219 43.628906 C 225.386719 42.691406 226.5 42.289062 227.429688 42.726562 C 227.878906 42.9375 228.222656 43.3125 228.390625 43.78125 C 228.5625 44.25 228.542969 44.761719 228.332031 45.214844 C 228.121094 45.667969 227.75 46.011719 227.28125 46.183594 C 226.8125 46.355469 226.304688 46.332031 225.851562 46.121094 C 225.832031 46.109375 225.808594 46.101562 225.789062 46.089844 Z M 227.113281 43.5 C 227.101562 43.492188 227.089844 43.488281 227.078125 43.480469 C 226.5625 43.238281 225.941406 43.460938 225.699219 43.980469 C 225.457031 44.503906 225.683594 45.132812 226.199219 45.367188 C 226.453125 45.484375 226.734375 45.496094 226.996094 45.402344 C 227.257812 45.304688 227.464844 45.113281 227.578125 44.863281 C 227.695312 44.609375 227.707031 44.328125 227.613281 44.066406 C 227.523438 43.820312 227.34375 43.617188 227.113281 43.5 Z M 227.113281 43.5 " fill-opacity="1" fill-rule="nonzero"/><path fill="#2492dd" d="M 222.871094 49.847656 C 222.855469 49.839844 222.839844 49.832031 222.824219 49.820312 C 222.632812 49.691406 222.585938 49.429688 222.714844 49.242188 L 225.367188 45.359375 C 225.496094 45.171875 225.757812 45.121094 225.945312 45.253906 C 226.132812 45.382812 226.179688 45.640625 226.050781 45.832031 L 223.398438 49.710938 C 223.28125 49.886719 223.054688 49.941406 222.871094 49.847656 Z M 222.871094 49.847656 " fill-opacity="1" fill-rule="nonzero"/><path fill="#2492dd" d="M 230.957031 47.722656 C 230.886719 47.683594 230.824219 47.625 230.78125 47.550781 C 230.671875 47.347656 230.75 47.09375 230.949219 46.984375 C 231.480469 46.699219 231.832031 46.246094 231.9375 45.714844 C 232.023438 45.269531 231.929688 44.824219 231.679688 44.515625 C 231.535156 44.335938 231.5625 44.074219 231.742188 43.929688 C 231.917969 43.785156 232.179688 43.8125 232.324219 43.988281 C 232.726562 44.488281 232.886719 45.195312 232.75 45.878906 C 232.59375 46.65625 232.09375 47.3125 231.34375 47.71875 C 231.21875 47.785156 231.074219 47.78125 230.957031 47.722656 Z M 230.957031 47.722656 " fill-opacity="1" fill-rule="nonzero"/><path fill="#2492dd" d="M 233.425781 49.277344 C 233.355469 49.242188 233.292969 49.183594 233.25 49.105469 C 233.140625 48.902344 233.21875 48.648438 233.417969 48.539062 C 234.347656 48.039062 234.964844 47.246094 235.152344 46.304688 C 235.308594 45.507812 235.132812 44.699219 234.679688 44.140625 C 234.535156 43.964844 234.5625 43.703125 234.738281 43.554688 C 234.917969 43.410156 235.179688 43.4375 235.324219 43.617188 C 235.929688 44.367188 236.171875 45.433594 235.964844 46.46875 C 235.726562 47.65625 234.960938 48.65625 233.8125 49.273438 C 233.6875 49.339844 233.542969 49.339844 233.425781 49.277344 Z M 233.425781 49.277344 " fill-opacity="1" fill-rule="nonzero"/><path fill="#2492dd" d="M 221.375 41.210938 C 221.238281 41.140625 221.144531 40.992188 221.152344 40.824219 C 221.1875 39.964844 221.554688 39.230469 222.183594 38.746094 C 222.738281 38.328125 223.441406 38.164062 224.0625 38.308594 C 224.285156 38.363281 224.425781 38.585938 224.371094 38.8125 C 224.320312 39.035156 224.097656 39.171875 223.875 39.121094 C 223.488281 39.03125 223.042969 39.140625 222.6875 39.410156 C 222.253906 39.738281 222.003906 40.253906 221.980469 40.859375 C 221.96875 41.089844 221.777344 41.265625 221.546875 41.257812 C 221.484375 41.253906 221.429688 41.238281 221.375 41.210938 Z M 221.375 41.210938 " fill-opacity="1" fill-rule="nonzero"/><g clip-path="url(#id33)"><path fill="#2492dd" d="M 218.902344 39.664062 C 218.761719 39.589844 218.667969 39.441406 218.675781 39.273438 C 218.730469 37.964844 219.285156 36.839844 220.246094 36.105469 C 221.082031 35.464844 222.144531 35.214844 223.082031 35.433594 C 223.304688 35.484375 223.445312 35.707031 223.394531 35.929688 C 223.339844 36.15625 223.117188 36.296875 222.894531 36.242188 C 222.195312 36.078125 221.390625 36.277344 220.75 36.765625 C 219.988281 37.347656 219.546875 38.25 219.503906 39.308594 C 219.492188 39.539062 219.300781 39.714844 219.070312 39.707031 C 219.011719 39.703125 218.953125 39.6875 218.902344 39.664062 Z M 218.902344 39.664062 " fill-opacity="1" fill-rule="nonzero"/></g><path fill="#2492dd" d="M 185.664062 102.050781 C 185.664062 102.050781 189.742188 104.097656 193.769531 105.867188 C 191.367188 106.652344 186.058594 108.074219 183.066406 106.464844 C 180.226562 104.9375 178.347656 100.132812 177.507812 97.53125 C 181.394531 99.828125 185.664062 102.050781 185.664062 102.050781 Z M 185.664062 102.050781 " fill-opacity="1" fill-rule="nonzero"/><path fill="#1b72c1" d="M 188.265625 97.429688 C 193.398438 99.992188 201.09375 103.46875 206.878906 104.996094 L 206.839844 105.140625 C 206.839844 105.140625 203.542969 109.425781 199.023438 107.957031 C 197.574219 107.484375 195.675781 106.707031 193.769531 105.867188 C 189.742188 104.097656 185.664062 102.050781 185.664062 102.050781 C 185.664062 102.050781 181.394531 99.828125 177.507812 97.53125 C 175.824219 96.535156 174.214844 95.523438 173.054688 94.679688 C 169.210938 91.875 170.722656 86.675781 170.722656 86.675781 L 170.851562 86.523438 C 175.511719 90.386719 183.046875 94.707031 188.207031 97.398438 C 188.226562 97.414062 188.246094 97.417969 188.265625 97.429688 Z M 188.265625 97.429688 " fill-opacity="1" fill-rule="nonzero"/><path fill="#2492dd" d="M 235.035156 67.386719 C 235.019531 66.035156 234.859375 64.714844 234.546875 63.460938 C 234.367188 62.726562 234.132812 62.023438 233.84375 61.347656 C 230.496094 53.550781 221.34375 48.257812 216.121094 45.527344 C 215.492188 45.203125 213.191406 44.027344 212.539062 43.703125 C 207.261719 41.066406 197.640625 36.769531 189.410156 38.636719 C 179.234375 40.945312 170.335938 56.375 177.71875 62.566406 C 177.722656 62.570312 177.722656 62.570312 177.722656 62.570312 C 177.875 62.699219 178.035156 62.828125 178.203125 62.945312 C 180.828125 64.832031 185.316406 67.585938 190.488281 70.484375 C 190.609375 70.550781 190.722656 70.617188 190.84375 70.683594 L 196.109375 73.550781 C 197.304688 74.183594 198.511719 74.8125 199.722656 75.425781 C 208.003906 79.636719 216.300781 83.230469 220.863281 84.753906 C 221.375 84.921875 221.882812 85.035156 222.382812 85.09375 C 224.820312 85.398438 227.09375 84.4375 229.015625 82.695312 C 232.601562 78.949219 234.613281 72.644531 235.035156 67.386719 Z M 235.035156 67.386719 " fill-opacity="1" fill-rule="nonzero"/><path fill="#2492dd" d="M 223.957031 90.304688 C 224.613281 86.800781 222.347656 85.382812 222.347656 85.382812 L 222.382812 85.09375 C 221.882812 85.035156 221.375 84.921875 220.863281 84.753906 C 216.300781 83.230469 208.003906 79.636719 199.722656 75.425781 C 198.511719 74.8125 197.304688 74.183594 196.109375 73.550781 L 190.84375 70.683594 C 190.722656 70.617188 190.609375 70.550781 190.488281 70.484375 C 185.316406 67.585938 180.828125 64.832031 178.203125 62.945312 C 178.035156 62.828125 177.875 62.699219 177.722656 62.570312 C 177.722656 62.570312 177.722656 62.570312 177.71875 62.566406 C 177.605469 62.527344 175.296875 61.738281 172.839844 64.136719 C 170.636719 66.289062 168.828125 69.683594 167.984375 71.789062 C 166.945312 74.382812 165.417969 79.984375 167.390625 82.953125 C 168.117188 84.042969 169.332031 85.257812 170.851562 86.523438 C 175.511719 90.386719 183.046875 94.703125 188.210938 97.398438 C 188.226562 97.414062 188.246094 97.417969 188.265625 97.425781 C 193.398438 99.992188 201.09375 103.46875 206.878906 104.992188 C 208.878906 105.523438 210.65625 105.820312 212.015625 105.765625 C 214.472656 105.660156 216.652344 104.0625 218.460938 101.886719 C 219.269531 100.917969 220.03125 99.855469 220.652344 98.722656 C 221.984375 96.289062 223.476562 92.855469 223.957031 90.304688 Z M 223.957031 90.304688 " fill-opacity="1" fill-rule="nonzero"/><path fill="#70caf2" d="M 170.535156 83.667969 C 170.3125 82.917969 170.234375 82.070312 170.25 81.183594 C 170.214844 79.898438 170.398438 78.648438 170.761719 77.460938 C 171.101562 76.035156 171.546875 74.726562 171.925781 73.800781 C 172.78125 71.707031 174.585938 68.308594 176.722656 66.121094 C 178.066406 64.75 179.332031 64.375 180.203125 64.316406 C 179.457031 63.824219 178.78125 63.363281 178.203125 62.945312 C 178.035156 62.828125 177.875 62.699219 177.722656 62.570312 C 177.722656 62.570312 177.722656 62.570312 177.71875 62.566406 C 177.605469 62.527344 175.296875 61.738281 172.839844 64.136719 C 170.636719 66.289062 168.828125 69.683594 167.984375 71.789062 C 166.945312 74.382812 165.417969 79.984375 167.390625 82.953125 C 168.117188 84.042969 169.332031 85.257812 170.851562 86.523438 C 171.132812 86.753906 171.425781 86.988281 171.726562 87.222656 C 171.183594 86.109375 170.785156 84.917969 170.535156 83.667969 Z M 170.535156 83.667969 " fill-opacity="1" fill-rule="nonzero"/><path fill="#70caf2" d="M 197.167969 73.921875 C 197.046875 73.855469 196.925781 73.789062 196.804688 73.722656 C 191.542969 70.785156 186.96875 68.003906 184.289062 66.105469 C 184.121094 65.984375 183.957031 65.855469 183.800781 65.726562 C 183.800781 65.726562 183.800781 65.726562 183.796875 65.726562 C 180.519531 63.035156 180.296875 58.703125 181.921875 54.496094 C 184.367188 49.242188 187.613281 46.394531 189.90625 44.734375 C 191.476562 43.59375 193.292969 42.902344 195.105469 42.535156 C 203.351562 40.871094 213.121094 45.261719 218.488281 47.945312 C 219.148438 48.273438 221.488281 49.472656 222.128906 49.804688 C 223.449219 50.492188 225.015625 51.339844 226.675781 52.34375 C 223.050781 49.304688 218.992188 47.03125 216.121094 45.53125 C 215.492188 45.203125 213.191406 44.027344 212.539062 43.703125 C 207.261719 41.066406 197.640625 36.769531 189.410156 38.636719 C 179.234375 40.945312 170.335938 56.375 177.71875 62.566406 C 177.722656 62.570312 177.722656 62.570312 177.722656 62.570312 C 177.875 62.699219 178.035156 62.828125 178.203125 62.945312 C 180.828125 64.835938 185.316406 67.585938 190.488281 70.488281 C 190.605469 70.554688 190.722656 70.617188 190.84375 70.683594 L 196.109375 73.550781 C 197.304688 74.183594 198.511719 74.8125 199.722656 75.425781 C 200.628906 75.886719 201.53125 76.339844 202.433594 76.785156 Z M 197.167969 73.921875 " fill-opacity="1" fill-rule="nonzero"/><path fill="#1b72c1" d="M 223.167969 83.542969 C 222.671875 83.472656 222.171875 83.355469 221.660156 83.179688 C 217.117188 81.625 208.832031 78.003906 200.550781 73.792969 C 199.339844 73.175781 198.132812 72.546875 196.9375 71.917969 L 191.667969 69.058594 C 191.546875 68.992188 191.433594 68.925781 191.3125 68.859375 C 186.136719 65.972656 181.636719 63.238281 179 61.375 C 178.832031 61.257812 178.671875 61.132812 178.519531 61.003906 C 178.519531 61.003906 178.519531 61.003906 178.515625 61 C 178.292969 60.820312 178.085938 60.632812 177.894531 60.4375 C 176.75 59.414062 175.78125 58.195312 175.023438 56.832031 C 175.128906 59.070312 175.953125 61.085938 177.71875 62.566406 C 177.722656 62.570312 177.722656 62.570312 177.722656 62.570312 C 177.875 62.699219 178.035156 62.828125 178.203125 62.945312 C 180.828125 64.835938 185.316406 67.585938 190.488281 70.488281 C 190.605469 70.554688 190.722656 70.617188 190.84375 70.683594 L 196.109375 73.550781 C 197.304688 74.183594 198.511719 74.8125 199.722656 75.425781 C 208.003906 79.636719 216.300781 83.230469 220.863281 84.753906 C 221.375 84.921875 221.882812 85.035156 222.382812 85.09375 C 224.824219 85.398438 227.089844 84.4375 229.007812 82.695312 C 227.546875 83.300781 225.046875 83.808594 223.167969 83.542969 Z M 223.167969 83.542969 " fill-opacity="1" fill-rule="nonzero"/><path fill="#2492dd" d="M 216.886719 93.800781 C 217.738281 94.621094 218.464844 95.535156 219.09375 96.464844 C 221.339844 99.804688 222.316406 103.453125 223.246094 104.539062 C 223.28125 104.574219 223.316406 104.609375 223.347656 104.644531 C 223.367188 104.664062 223.390625 104.683594 223.414062 104.703125 C 223.441406 104.722656 223.460938 104.742188 223.488281 104.761719 C 223.488281 104.757812 223.492188 104.761719 223.496094 104.757812 C 223.53125 104.78125 223.570312 104.796875 223.605469 104.808594 C 224.941406 105.277344 226.585938 103.921875 226.617188 97.570312 C 226.621094 96.261719 226.519531 95.058594 226.355469 93.972656 C 225.941406 91.277344 223.082031 89.652344 220.625 90.804688 C 219.402344 91.378906 218.09375 92.304688 216.886719 93.800781 Z M 216.886719 93.800781 " fill-opacity="1" fill-rule="nonzero"/><path fill="#1b72c1" d="M 216.945312 93.75 L 216.886719 93.800781 C 217.738281 94.621094 218.464844 95.535156 219.09375 96.464844 C 221.339844 99.804688 222.316406 103.453125 223.246094 104.539062 C 223.28125 104.574219 223.316406 104.609375 223.347656 104.644531 C 223.367188 104.664062 223.390625 104.683594 223.414062 104.703125 C 223.441406 104.722656 223.460938 104.742188 223.488281 104.761719 C 223.488281 104.757812 223.492188 104.761719 223.496094 104.757812 C 224.707031 104.472656 224.542969 100.425781 223.25 97.457031 C 222.191406 95.027344 219.105469 91.886719 216.945312 93.75 Z M 216.945312 93.75 " fill-opacity="1" fill-rule="nonzero"/><path fill="#ffffff" d="M 198.46875 40.394531 C 198.46875 40.394531 189.882812 40.574219 184.988281 45.164062 C 184.988281 45.164062 188.484375 37.113281 198.46875 40.394531 Z M 198.46875 40.394531 " fill-opacity="1" fill-rule="nonzero"/><path fill="#70caf2" d="M 206.515625 103.648438 C 206.515625 103.648438 210.957031 105.472656 213.914062 103.980469 C 216.867188 102.484375 218.171875 100.203125 218.171875 100.203125 C 218.171875 100.203125 215.617188 102.101562 212.914062 102.859375 C 210.03125 103.667969 206.515625 103.648438 206.515625 103.648438 Z M 206.515625 103.648438 " fill-opacity="1" fill-rule="nonzero"/><path fill="#ffffff" d="M 170.144531 84.429688 C 170.144531 84.429688 167.90625 83.269531 167.601562 81.28125 C 167.304688 79.328125 168.246094 78.332031 168.246094 78.332031 C 168.246094 78.332031 168.125 79.757812 168.699219 81.441406 C 169.203125 82.929688 170.144531 84.429688 170.144531 84.429688 Z M 170.144531 84.429688 " fill-opacity="1" fill-rule="nonzero"/><path fill="#2492dd" d="M 197.414062 106.335938 C 197.414062 106.335938 199.90625 107.914062 201.984375 107.300781 C 204.023438 106.695312 204.382812 105.363281 204.382812 105.363281 C 204.382812 105.363281 203.105469 106.121094 201.152344 106.34375 C 199.421875 106.539062 197.414062 106.335938 197.414062 106.335938 Z M 197.414062 106.335938 " fill-opacity="1" fill-rule="nonzero"/><path fill="#2492dd" d="M 174.902344 94.730469 C 174.902344 94.730469 172.230469 93.667969 171.535156 91.636719 C 170.855469 89.640625 171.710938 88.5625 171.710938 88.5625 C 171.710938 88.5625 171.835938 90.039062 172.769531 91.738281 C 173.597656 93.238281 174.902344 94.730469 174.902344 94.730469 Z M 174.902344 94.730469 " fill-opacity="1" fill-rule="nonzero"/><path fill="#70caf2" d="M 187.839844 106.214844 C 187.839844 106.214844 185.007812 106.773438 182.933594 105.308594 C 180.890625 103.867188 180.714844 102.390625 180.714844 102.390625 C 180.714844 102.390625 181.933594 103.671875 183.941406 104.691406 C 185.714844 105.597656 187.839844 106.214844 187.839844 106.214844 Z M 187.839844 106.214844 " fill-opacity="1" fill-rule="nonzero"/><path fill="#ffffff" d="M 199.726562 82.332031 C 202.425781 83.710938 203.5 87.027344 202.125 89.734375 C 200.753906 92.441406 197.453125 93.519531 194.753906 92.140625 C 192.054688 90.761719 190.980469 87.445312 192.351562 84.738281 C 193.726562 82.03125 197.027344 80.953125 199.726562 82.332031 Z M 199.726562 82.332031 " fill-opacity="1" fill-rule="nonzero"/><path fill="#62a5d3" d="M 195.125 90.300781 C 195.050781 90.261719 194.988281 90.203125 194.949219 90.125 C 194.839844 89.921875 194.914062 89.671875 195.117188 89.5625 L 198.113281 87.945312 L 195.0625 87.191406 C 194.894531 87.148438 194.769531 87.007812 194.75 86.832031 C 194.730469 86.660156 194.820312 86.492188 194.976562 86.414062 L 199.203125 84.285156 C 199.410156 84.183594 199.660156 84.265625 199.761719 84.472656 C 199.863281 84.679688 199.78125 84.929688 199.578125 85.03125 L 196.355469 86.652344 L 199.359375 87.394531 C 199.527344 87.433594 199.648438 87.574219 199.671875 87.746094 C 199.691406 87.917969 199.609375 88.082031 199.457031 88.164062 L 195.511719 90.296875 C 195.386719 90.363281 195.242188 90.359375 195.125 90.300781 Z M 195.125 90.300781 " fill-opacity="1" fill-rule="nonzero"/><path fill="#ecffff" d="M 229.917969 65.628906 C 231.660156 68.738281 229.941406 73.011719 228.207031 76.023438 C 226.941406 78.226562 224.0625 79.121094 221.382812 78.128906 C 211.769531 74.566406 203.90625 70.617188 197.785156 67.027344 C 190.5625 62.90625 185.199219 58.546875 184.410156 57.90625 C 182.554688 56.402344 181.808594 54.058594 182.585938 52.074219 C 183.84375 48.832031 186.171875 45.390625 189.445312 44.828125 C 190.878906 44.582031 193.867188 44.707031 197.273438 44.996094 C 208.042969 45.90625 218.320312 51.199219 225.3125 59.464844 C 227.324219 61.847656 229.054688 64.082031 229.917969 65.628906 Z M 229.917969 65.628906 " fill-opacity="1" fill-rule="nonzero"/><path fill="#1b72c1" d="M 229.96875 65.578125 C 229.105469 64.027344 227.375 61.785156 225.359375 59.398438 C 218.367188 51.113281 208.078125 45.8125 197.289062 44.910156 C 193.875 44.625 190.882812 44.503906 189.445312 44.753906 C 186.164062 45.324219 183.832031 48.777344 182.5625 52.03125 C 182.019531 53.421875 182.21875 54.988281 183.019531 56.320312 C 182.699219 55.363281 182.691406 54.355469 183.042969 53.4375 C 184.195312 50.449219 186.351562 47.289062 189.453125 46.8125 C 190.816406 46.601562 193.652344 46.761719 196.890625 47.082031 C 207.132812 48.085938 216.972656 53.152344 223.730469 60.925781 C 225.675781 63.167969 227.351562 65.265625 228.195312 66.71875 C 229.894531 69.628906 228.324219 73.570312 226.722656 76.34375 C 226.03125 77.539062 224.804688 78.296875 223.386719 78.527344 C 225.40625 78.601562 227.28125 77.683594 228.242188 76.011719 C 229.980469 72.984375 231.707031 68.699219 229.96875 65.578125 Z M 229.96875 65.578125 " fill-opacity="1" fill-rule="nonzero"/><path fill="#256199" d="M 208.742188 68.214844 C 208.730469 68.214844 208.71875 68.214844 208.710938 68.214844 C 208.367188 68.195312 208.101562 67.902344 208.121094 67.558594 C 208.1875 66.253906 207.171875 65.316406 206.277344 64.914062 C 205.355469 64.5 204.042969 64.390625 203.105469 65.316406 C 202.859375 65.558594 202.46875 65.554688 202.226562 65.3125 C 201.984375 65.066406 201.988281 64.667969 202.230469 64.425781 C 203.390625 63.28125 205.136719 63.03125 206.785156 63.777344 C 208.433594 64.519531 209.445312 66.03125 209.363281 67.621094 C 209.347656 67.957031 209.070312 68.214844 208.742188 68.214844 Z M 208.742188 68.214844 " fill-opacity="1" fill-rule="nonzero"/><path fill="#256199" d="M 190.871094 56.507812 C 190.621094 56.507812 190.386719 56.355469 190.289062 56.105469 C 190.167969 55.785156 190.328125 55.425781 190.648438 55.300781 L 196.34375 53.105469 C 196.664062 52.984375 197.023438 53.144531 197.148438 53.464844 C 197.269531 53.789062 197.109375 54.148438 196.789062 54.273438 L 191.09375 56.464844 C 191.019531 56.496094 190.945312 56.507812 190.871094 56.507812 Z M 190.871094 56.507812 " fill-opacity="1" fill-rule="nonzero"/><path fill="#256199" d="M 194.808594 58.269531 C 194.5625 58.269531 194.324219 58.117188 194.230469 57.867188 L 192.046875 52.152344 C 191.921875 51.828125 192.082031 51.46875 192.402344 51.34375 C 192.722656 51.222656 193.082031 51.382812 193.207031 51.703125 L 195.390625 57.421875 C 195.515625 57.742188 195.355469 58.105469 195.035156 58.226562 C 194.960938 58.257812 194.882812 58.269531 194.808594 58.269531 Z M 194.808594 58.269531 " fill-opacity="1" fill-rule="nonzero"/><path fill="#256199" d="M 217.328125 68.339844 C 217.078125 68.339844 216.84375 68.1875 216.746094 67.9375 C 216.625 67.617188 216.785156 67.253906 217.105469 67.132812 L 222.800781 64.9375 C 223.121094 64.8125 223.480469 64.972656 223.601562 65.296875 C 223.726562 65.617188 223.566406 65.980469 223.246094 66.101562 L 217.550781 68.296875 C 217.476562 68.324219 217.402344 68.339844 217.328125 68.339844 Z M 217.328125 68.339844 " fill-opacity="1" fill-rule="nonzero"/><path fill="#256199" d="M 221.265625 70.101562 C 221.019531 70.101562 220.78125 69.949219 220.6875 69.699219 L 218.503906 63.980469 C 218.378906 63.660156 218.539062 63.300781 218.859375 63.175781 C 219.179688 63.050781 219.539062 63.210938 219.664062 63.535156 L 221.847656 69.253906 C 221.972656 69.574219 221.8125 69.9375 221.492188 70.058594 C 221.417969 70.085938 221.34375 70.101562 221.265625 70.101562 Z M 221.265625 70.101562 " fill-opacity="1" fill-rule="nonzero"/><path fill="#0f5784" d="M 176.792969 72.277344 C 176.792969 72.277344 172.128906 77.164062 173.660156 83.410156 C 175.191406 89.652344 187.03125 93.441406 187.03125 93.441406 C 187.03125 93.441406 184.46875 87.359375 189.898438 80.464844 C 189.898438 80.464844 181.851562 76.53125 176.792969 72.277344 Z M 176.792969 72.277344 " fill-opacity="1" fill-rule="nonzero"/><path fill="#2492dd" d="M 179.757812 82.519531 C 180.027344 82.601562 180.304688 82.648438 180.582031 82.667969 C 181.296875 82.710938 182.015625 82.550781 182.644531 82.203125 C 182.890625 82.070312 183.121094 81.90625 183.332031 81.71875 C 183.59375 81.488281 183.828125 81.214844 184.023438 80.902344 C 184.222656 80.59375 184.367188 80.265625 184.464844 79.925781 C 184.542969 79.652344 184.59375 79.375 184.609375 79.097656 C 184.652344 78.378906 184.492188 77.65625 184.148438 77.027344 C 184.015625 76.78125 183.851562 76.550781 183.664062 76.339844 C 183.433594 76.074219 183.164062 75.839844 182.851562 75.640625 C 182.542969 75.445312 182.214844 75.296875 181.878906 75.199219 C 181.609375 75.121094 181.332031 75.070312 181.054688 75.054688 C 180.339844 75.011719 179.621094 75.171875 178.992188 75.519531 C 178.746094 75.652344 178.519531 75.8125 178.308594 76.003906 C 178.042969 76.234375 177.808594 76.507812 177.613281 76.816406 C 177.417969 77.128906 177.269531 77.457031 177.175781 77.796875 C 177.09375 78.066406 177.046875 78.34375 177.03125 78.621094 C 176.984375 79.34375 177.144531 80.0625 177.488281 80.695312 C 177.621094 80.941406 177.785156 81.171875 177.972656 81.382812 C 178.203125 81.648438 178.472656 81.882812 178.785156 82.078125 C 179.09375 82.277344 179.421875 82.421875 179.757812 82.519531 Z M 180.144531 79.925781 C 179.558594 79.554688 179.386719 78.773438 179.757812 78.183594 C 180.128906 77.59375 180.90625 77.421875 181.492188 77.792969 C 182.078125 78.167969 182.253906 78.949219 181.878906 79.535156 C 181.507812 80.125 180.730469 80.300781 180.144531 79.925781 Z M 180.144531 79.925781 " fill-opacity="1" fill-rule="nonzero"/><path fill="#2492dd" d="M 183.683594 75.757812 C 183.683594 75.972656 183.609375 76.15625 183.457031 76.308594 C 183.304688 76.460938 183.121094 76.539062 182.90625 76.539062 C 182.691406 76.539062 182.507812 76.460938 182.355469 76.308594 C 182.203125 76.15625 182.128906 75.972656 182.128906 75.757812 C 182.128906 75.542969 182.203125 75.355469 182.355469 75.203125 C 182.507812 75.050781 182.691406 74.976562 182.90625 74.976562 C 183.121094 74.976562 183.304688 75.050781 183.457031 75.203125 C 183.609375 75.355469 183.683594 75.542969 183.683594 75.757812 Z M 183.683594 75.757812 " fill-opacity="1" fill-rule="nonzero"/><path fill="#2492dd" d="M 178.527344 76.796875 C 178.527344 77.011719 178.453125 77.195312 178.300781 77.347656 C 178.148438 77.5 177.964844 77.574219 177.75 77.574219 C 177.535156 77.574219 177.351562 77.5 177.203125 77.347656 C 177.050781 77.195312 176.972656 77.011719 176.972656 76.796875 C 176.972656 76.578125 177.050781 76.394531 177.203125 76.242188 C 177.351562 76.089844 177.535156 76.015625 177.75 76.015625 C 177.964844 76.015625 178.148438 76.089844 178.300781 76.242188 C 178.453125 76.394531 178.527344 76.578125 178.527344 76.796875 Z M 178.527344 76.796875 " fill-opacity="1" fill-rule="nonzero"/><path fill="#2492dd" d="M 180.890625 75.203125 C 180.890625 75.417969 180.816406 75.601562 180.664062 75.757812 C 180.511719 75.910156 180.328125 75.984375 180.113281 75.984375 C 179.898438 75.984375 179.714844 75.910156 179.566406 75.757812 C 179.414062 75.601562 179.335938 75.417969 179.335938 75.203125 C 179.335938 74.988281 179.414062 74.804688 179.566406 74.652344 C 179.714844 74.5 179.898438 74.421875 180.113281 74.421875 C 180.328125 74.421875 180.511719 74.5 180.664062 74.652344 C 180.816406 74.804688 180.890625 74.988281 180.890625 75.203125 Z M 180.890625 75.203125 " fill-opacity="1" fill-rule="nonzero"/><path fill="#2492dd" d="M 177.976562 79.597656 C 177.976562 79.8125 177.902344 80 177.75 80.152344 C 177.597656 80.304688 177.414062 80.378906 177.199219 80.378906 C 176.984375 80.378906 176.800781 80.304688 176.652344 80.152344 C 176.5 80 176.421875 79.8125 176.421875 79.597656 C 176.421875 79.382812 176.5 79.199219 176.652344 79.046875 C 176.800781 78.894531 176.984375 78.816406 177.199219 78.816406 C 177.414062 78.816406 177.597656 78.894531 177.75 79.046875 C 177.902344 79.199219 177.976562 79.382812 177.976562 79.597656 Z M 177.976562 79.597656 " fill-opacity="1" fill-rule="nonzero"/><path fill="#2492dd" d="M 182.355469 82.523438 C 182.355469 82.742188 182.277344 82.925781 182.128906 83.078125 C 181.976562 83.230469 181.792969 83.304688 181.578125 83.304688 C 181.363281 83.304688 181.179688 83.230469 181.027344 83.078125 C 180.875 82.925781 180.800781 82.742188 180.800781 82.523438 C 180.800781 82.308594 180.875 82.125 181.027344 81.972656 C 181.179688 81.820312 181.363281 81.746094 181.578125 81.746094 C 181.792969 81.746094 181.976562 81.820312 182.128906 81.972656 C 182.277344 82.125 182.355469 82.308594 182.355469 82.523438 Z M 182.355469 82.523438 " fill-opacity="1" fill-rule="nonzero"/><path fill="#2492dd" d="M 179.5625 81.972656 C 179.5625 82.1875 179.488281 82.371094 179.335938 82.523438 C 179.183594 82.675781 179 82.753906 178.785156 82.753906 C 178.570312 82.753906 178.386719 82.675781 178.234375 82.523438 C 178.085938 82.371094 178.007812 82.1875 178.007812 81.972656 C 178.007812 81.757812 178.085938 81.574219 178.234375 81.421875 C 178.386719 81.269531 178.570312 81.191406 178.785156 81.191406 C 179 81.191406 179.183594 81.269531 179.335938 81.421875 C 179.488281 81.574219 179.5625 81.757812 179.5625 81.972656 Z M 179.5625 81.972656 " fill-opacity="1" fill-rule="nonzero"/><path fill="#2492dd" d="M 184.71875 80.933594 C 184.71875 81.148438 184.644531 81.332031 184.492188 81.484375 C 184.339844 81.636719 184.15625 81.714844 183.941406 81.714844 C 183.726562 81.714844 183.542969 81.636719 183.390625 81.484375 C 183.238281 81.332031 183.164062 81.148438 183.164062 80.933594 C 183.164062 80.71875 183.238281 80.535156 183.390625 80.382812 C 183.542969 80.230469 183.726562 80.152344 183.941406 80.152344 C 184.15625 80.152344 184.339844 80.230469 184.492188 80.382812 C 184.644531 80.535156 184.71875 80.71875 184.71875 80.933594 Z M 184.71875 80.933594 " fill-opacity="1" fill-rule="nonzero"/><path fill="#2492dd" d="M 185.269531 78.128906 C 185.269531 78.34375 185.191406 78.53125 185.042969 78.683594 C 184.890625 78.835938 184.707031 78.910156 184.492188 78.910156 C 184.277344 78.910156 184.09375 78.835938 183.941406 78.683594 C 183.789062 78.53125 183.714844 78.34375 183.714844 78.128906 C 183.714844 77.914062 183.789062 77.730469 183.941406 77.578125 C 184.09375 77.425781 184.277344 77.347656 184.492188 77.347656 C 184.707031 77.347656 184.890625 77.425781 185.042969 77.578125 C 185.191406 77.730469 185.269531 77.914062 185.269531 78.128906 Z M 185.269531 78.128906 " fill-opacity="1" fill-rule="nonzero"/><path fill="#2492dd" d="M 179.066406 88.667969 C 179.246094 88.746094 179.433594 88.800781 179.625 88.835938 C 180.117188 88.921875 180.628906 88.867188 181.09375 88.679688 C 181.273438 88.605469 181.445312 88.511719 181.605469 88.398438 C 181.808594 88.261719 181.992188 88.089844 182.152344 87.890625 C 182.3125 87.691406 182.441406 87.476562 182.535156 87.25 C 182.609375 87.066406 182.667969 86.878906 182.699219 86.6875 C 182.789062 86.191406 182.734375 85.679688 182.546875 85.214844 C 182.472656 85.03125 182.378906 84.859375 182.265625 84.699219 C 182.128906 84.496094 181.957031 84.3125 181.761719 84.148438 C 181.5625 83.988281 181.347656 83.859375 181.121094 83.765625 C 180.941406 83.6875 180.75 83.632812 180.5625 83.597656 C 180.070312 83.511719 179.558594 83.566406 179.09375 83.753906 C 178.914062 83.828125 178.742188 83.921875 178.582031 84.035156 C 178.382812 84.175781 178.199219 84.34375 178.035156 84.542969 C 177.875 84.742188 177.746094 84.960938 177.652344 85.1875 C 177.578125 85.367188 177.523438 85.554688 177.488281 85.746094 C 177.398438 86.242188 177.453125 86.753906 177.640625 87.21875 C 177.714844 87.398438 177.808594 87.574219 177.921875 87.734375 C 178.058594 87.9375 178.226562 88.121094 178.425781 88.28125 C 178.625 88.445312 178.839844 88.574219 179.066406 88.667969 Z M 179.542969 86.902344 C 179.167969 86.59375 179.109375 86.039062 179.414062 85.664062 C 179.71875 85.285156 180.269531 85.226562 180.644531 85.53125 C 181.023438 85.839844 181.078125 86.394531 180.773438 86.769531 C 180.46875 87.148438 179.917969 87.207031 179.542969 86.902344 Z M 179.542969 86.902344 " fill-opacity="1" fill-rule="nonzero"/><path fill="#2492dd" d="M 182.328125 84.234375 C 182.328125 84.386719 182.277344 84.511719 182.171875 84.621094 C 182.066406 84.726562 181.9375 84.777344 181.789062 84.777344 C 181.636719 84.777344 181.511719 84.726562 181.402344 84.621094 C 181.296875 84.511719 181.246094 84.386719 181.246094 84.234375 C 181.246094 84.085938 181.296875 83.957031 181.402344 83.851562 C 181.511719 83.742188 181.636719 83.691406 181.789062 83.691406 C 181.9375 83.691406 182.066406 83.742188 182.171875 83.851562 C 182.277344 83.957031 182.328125 84.085938 182.328125 84.234375 Z M 182.328125 84.234375 " fill-opacity="1" fill-rule="nonzero"/><path fill="#2492dd" d="M 178.675781 84.539062 C 178.675781 84.691406 178.621094 84.816406 178.515625 84.925781 C 178.410156 85.03125 178.28125 85.085938 178.132812 85.085938 C 177.984375 85.085938 177.855469 85.03125 177.75 84.925781 C 177.644531 84.816406 177.589844 84.691406 177.589844 84.539062 C 177.589844 84.390625 177.644531 84.261719 177.75 84.15625 C 177.855469 84.046875 177.984375 83.996094 178.132812 83.996094 C 178.28125 83.996094 178.410156 84.046875 178.515625 84.15625 C 178.621094 84.261719 178.675781 84.390625 178.675781 84.539062 Z M 178.675781 84.539062 " fill-opacity="1" fill-rule="nonzero"/><path fill="#2492dd" d="M 180.441406 83.628906 C 180.441406 83.777344 180.386719 83.90625 180.28125 84.011719 C 180.175781 84.117188 180.046875 84.171875 179.898438 84.171875 C 179.746094 84.171875 179.621094 84.117188 179.515625 84.011719 C 179.40625 83.90625 179.355469 83.777344 179.355469 83.628906 C 179.355469 83.476562 179.40625 83.347656 179.515625 83.242188 C 179.621094 83.136719 179.746094 83.082031 179.898438 83.082031 C 180.046875 83.082031 180.175781 83.136719 180.28125 83.242188 C 180.386719 83.347656 180.441406 83.476562 180.441406 83.628906 Z M 180.441406 83.628906 " fill-opacity="1" fill-rule="nonzero"/><path fill="#2492dd" d="M 178.070312 86.4375 C 178.070312 86.585938 178.015625 86.714844 177.910156 86.824219 C 177.804688 86.929688 177.679688 86.980469 177.527344 86.980469 C 177.378906 86.980469 177.25 86.929688 177.144531 86.824219 C 177.039062 86.714844 176.984375 86.585938 176.984375 86.4375 C 176.984375 86.285156 177.039062 86.160156 177.144531 86.050781 C 177.25 85.945312 177.378906 85.894531 177.527344 85.894531 C 177.679688 85.894531 177.804688 85.945312 177.910156 86.050781 C 178.015625 86.160156 178.070312 86.285156 178.070312 86.4375 Z M 178.070312 86.4375 " fill-opacity="1" fill-rule="nonzero"/><path fill="#2492dd" d="M 180.871094 88.816406 C 180.871094 88.96875 180.816406 89.09375 180.710938 89.203125 C 180.605469 89.308594 180.476562 89.359375 180.328125 89.359375 C 180.175781 89.359375 180.050781 89.308594 179.945312 89.203125 C 179.835938 89.09375 179.785156 88.96875 179.785156 88.816406 C 179.785156 88.667969 179.835938 88.539062 179.945312 88.429688 C 180.050781 88.324219 180.175781 88.273438 180.328125 88.273438 C 180.476562 88.273438 180.605469 88.324219 180.710938 88.429688 C 180.816406 88.539062 180.871094 88.667969 180.871094 88.816406 Z M 180.871094 88.816406 " fill-opacity="1" fill-rule="nonzero"/><path fill="#2492dd" d="M 178.980469 88.207031 C 178.980469 88.359375 178.925781 88.488281 178.820312 88.59375 C 178.714844 88.699219 178.585938 88.753906 178.4375 88.753906 C 178.285156 88.753906 178.160156 88.699219 178.054688 88.59375 C 177.949219 88.488281 177.894531 88.359375 177.894531 88.207031 C 177.894531 88.058594 177.949219 87.929688 178.054688 87.824219 C 178.160156 87.71875 178.285156 87.664062 178.4375 87.664062 C 178.585938 87.664062 178.714844 87.71875 178.820312 87.824219 C 178.925781 87.929688 178.980469 88.058594 178.980469 88.207031 Z M 178.980469 88.207031 " fill-opacity="1" fill-rule="nonzero"/><path fill="#2492dd" d="M 182.632812 87.902344 C 182.632812 88.054688 182.582031 88.183594 182.476562 88.289062 C 182.367188 88.394531 182.242188 88.449219 182.089844 88.449219 C 181.941406 88.449219 181.8125 88.394531 181.707031 88.289062 C 181.601562 88.183594 181.546875 88.054688 181.546875 87.902344 C 181.546875 87.753906 181.601562 87.625 181.707031 87.519531 C 181.8125 87.414062 181.941406 87.359375 182.089844 87.359375 C 182.242188 87.359375 182.367188 87.414062 182.476562 87.519531 C 182.582031 87.625 182.632812 87.753906 182.632812 87.902344 Z M 182.632812 87.902344 " fill-opacity="1" fill-rule="nonzero"/><path fill="#2492dd" d="M 183.238281 86.007812 C 183.238281 86.15625 183.1875 86.285156 183.078125 86.390625 C 182.972656 86.496094 182.847656 86.550781 182.695312 86.550781 C 182.546875 86.550781 182.417969 86.496094 182.3125 86.390625 C 182.207031 86.285156 182.152344 86.15625 182.152344 86.007812 C 182.152344 85.855469 182.207031 85.726562 182.3125 85.621094 C 182.417969 85.515625 182.546875 85.460938 182.695312 85.460938 C 182.847656 85.460938 182.972656 85.515625 183.078125 85.621094 C 183.1875 85.726562 183.238281 85.855469 183.238281 86.007812 Z M 183.238281 86.007812 " fill-opacity="1" fill-rule="nonzero"/><path fill="#1b72c1" d="M 161.773438 94.179688 C 161.769531 94.179688 161.769531 94.179688 161.769531 94.179688 C 161.539062 94.175781 161.355469 93.988281 161.359375 93.757812 C 161.398438 89.886719 163.269531 86.371094 166.496094 84.113281 C 169.195312 82.226562 172.378906 81.597656 174.8125 82.46875 C 175.03125 82.546875 175.140625 82.785156 175.066406 83.003906 C 174.988281 83.21875 174.746094 83.332031 174.535156 83.253906 C 172.351562 82.46875 169.453125 83.0625 166.96875 84.796875 C 163.96875 86.898438 162.226562 90.167969 162.1875 93.769531 C 162.183594 93.996094 162 94.179688 161.773438 94.179688 Z M 161.773438 94.179688 " fill-opacity="1" fill-rule="nonzero"/><path fill="#1b72c1" d="M 165.769531 96.859375 C 166.402344 96.652344 166.671875 95.925781 166.328125 95.269531 C 165.191406 93.097656 163.714844 91.695312 161.535156 92.417969 C 159.367188 93.136719 158.996094 95.148438 159.367188 97.574219 C 159.480469 98.304688 160.125 98.726562 160.757812 98.519531 Z M 165.769531 96.859375 " fill-opacity="1" fill-rule="nonzero"/><path fill="#1b72c1" d="M 162.4375 100.570312 C 162.203125 100.648438 161.949219 100.519531 161.871094 100.28125 L 160.984375 97.578125 L 161.835938 97.296875 L 162.722656 100 C 162.800781 100.238281 162.671875 100.492188 162.4375 100.570312 Z M 162.4375 100.570312 " fill-opacity="1" fill-rule="nonzero"/><path fill="#1b72c1" d="M 165.671875 99.5 C 165.4375 99.578125 165.183594 99.449219 165.105469 99.214844 L 164.21875 96.507812 L 165.066406 96.226562 L 165.957031 98.929688 C 166.03125 99.167969 165.90625 99.421875 165.671875 99.5 Z M 165.671875 99.5 " fill-opacity="1" fill-rule="nonzero"/><path fill="#2492dd" d="M 174.832031 63.570312 C 173.632812 63.476562 172.476562 63.234375 171.386719 62.910156 C 167.46875 61.746094 164.351562 59.515625 162.921875 59.265625 C 162.871094 59.257812 162.820312 59.253906 162.773438 59.25 C 162.746094 59.246094 162.714844 59.242188 162.683594 59.246094 C 162.652344 59.246094 162.621094 59.246094 162.589844 59.246094 C 162.589844 59.25 162.585938 59.25 162.585938 59.253906 C 162.542969 59.261719 162.5 59.269531 162.464844 59.285156 C 161.113281 59.785156 160.699219 61.917969 164.765625 66.925781 C 165.601562 67.957031 166.457031 68.835938 167.289062 69.582031 C 169.347656 71.429688 172.640625 70.851562 173.828125 68.347656 C 174.417969 67.105469 174.847656 65.527344 174.832031 63.570312 Z M 174.832031 63.570312 " fill-opacity="1" fill-rule="nonzero"/><path fill="#70caf2" d="M 174.820312 63.644531 L 174.832031 63.570312 C 173.632812 63.476562 172.476562 63.234375 171.386719 62.910156 C 167.46875 61.746094 164.351562 59.515625 162.921875 59.265625 C 162.871094 59.257812 162.820312 59.253906 162.773438 59.25 C 162.746094 59.246094 162.714844 59.242188 162.683594 59.246094 C 162.652344 59.246094 162.621094 59.246094 162.589844 59.246094 C 162.589844 59.25 162.585938 59.25 162.585938 59.253906 C 161.820312 60.265625 164.550781 63.339844 167.480469 64.828125 C 169.878906 66.050781 174.324219 66.511719 174.820312 63.644531 Z M 174.820312 63.644531 " fill-opacity="1" fill-rule="nonzero"/><g clip-path="url(#id34)"><path fill="#0f5784" d="M 166.019531 76.15625 L 167.761719 55.089844 C 170.992188 54.488281 173.597656 51.839844 173.996094 48.390625 C 174.246094 46.210938 173.566406 44.140625 172.273438 42.578125 L 170.722656 42.398438 L 170.117188 47.664062 L 166.191406 49.558594 L 162.675781 46.796875 L 163.28125 41.535156 L 161.734375 41.351562 C 160.117188 42.578125 158.984375 44.4375 158.734375 46.617188 C 158.335938 50.0625 160.269531 53.242188 163.277344 54.566406 L 160.175781 75.476562 C 159.917969 77.132812 161.085938 78.671875 162.746094 78.867188 C 164.40625 79.058594 165.894531 77.828125 166.019531 76.15625 Z M 163.066406 76.796875 C 162.535156 76.734375 162.152344 76.25 162.214844 75.714844 C 162.273438 75.179688 162.757812 74.796875 163.289062 74.859375 C 163.824219 74.921875 164.203125 75.40625 164.144531 75.941406 C 164.082031 76.476562 163.597656 76.859375 163.066406 76.796875 Z M 163.066406 76.796875 " fill-opacity="1" fill-rule="nonzero"/></g><path fill="#2492dd" d="M 162.679688 58.652344 C 162.679688 58.652344 164.566406 60.621094 164.027344 62.441406 C 163.636719 63.753906 162.585938 63.996094 161.898438 63.914062 C 161.109375 63.15625 160.203125 60.367188 162.679688 58.652344 Z M 162.679688 58.652344 " fill-opacity="1" fill-rule="nonzero"/></svg>